HIERARCHY
ROOT Hips
{
	OFFSET -0.001795 -0.223333 0.028219
	CHANNELS 6 Xposition Yposition Zposition Zrotation Yrotation Xrotation 
	JOINT LeftUpLeg
	{
		OFFSET 0.069520 -0.091406 -0.006815
		CHANNELS 3 Zrotation Yrotation Xrotation
		JOINT LeftLeg
		{
			OFFSET 0.034277 -0.375199 -0.004496
			CHANNELS 3 Zrotation Yrotation Xrotation
			JOINT LeftFoot
			{
				OFFSET -0.013596 -0.397961 -0.043693
				CHANNELS 3 Zrotation Yrotation Xrotation
				JOINT LeftToe
				{
					OFFSET 0.026358 -0.055791 0.119288
					CHANNELS 3 Zrotation Yrotation Xrotation
					End Site
					{
						OFFSET 0.000000 0.000000 0.000000
					}
				}
			}
		}
	}
	JOINT RightUpLeg
	{
		OFFSET -0.067670 -0.090522 -0.004320
		CHANNELS 3 Zrotation Yrotation Xrotation
		JOINT RightLeg
		{
			OFFSET -0.038290 -0.382569 -0.008850
			CHANNELS 3 Zrotation Yrotation Xrotation
			JOINT RightFoot
			{
				OFFSET 0.015774 -0.398415 -0.042312
				CHANNELS 3 Zrotation Yrotation Xrotation
				JOINT RightToe
				{
					OFFSET -0.025372 -0.048144 0.123348
					CHANNELS 3 Zrotation Yrotation Xrotation
					End Site
					{
						OFFSET 0.000000 0.000000 0.000000
					}
				}
			}
		}
	}
	JOINT Spine
	{
		OFFSET -0.002533 0.108963 -0.026696
		CHANNELS 3 Zrotation Yrotation Xrotation
		JOINT Spine1
		{
			OFFSET 0.005487 0.135180 0.001092
			CHANNELS 3 Zrotation Yrotation Xrotation
			JOINT Spine2
			{
				OFFSET 0.001457 0.052922 0.025425
				CHANNELS 3 Zrotation Yrotation Xrotation
				JOINT Neck
				{
					OFFSET -0.002778 0.213870 -0.042857
					CHANNELS 3 Zrotation Yrotation Xrotation
					JOINT Head
					{
						OFFSET 0.005152 0.064970 0.051349
						CHANNELS 3 Zrotation Yrotation Xrotation
						End Site
						{
							OFFSET 0.000000 0.000000 0.000000
						}
					}
				}
				JOINT LeftShoulder
				{
					OFFSET 0.078845 0.121749 -0.034090
					CHANNELS 3 Zrotation Yrotation Xrotation
					JOINT LeftArm
					{
						OFFSET 0.090977 0.030469 -0.008868
						CHANNELS 3 Zrotation Yrotation Xrotation
						JOINT LeftForeArm
						{
							OFFSET 0.259612 -0.012772 -0.027456
							CHANNELS 3 Zrotation Yrotation Xrotation
							JOINT LeftHand
							{
								OFFSET 0.249234 0.008986 -0.001171
								CHANNELS 3 Zrotation Yrotation Xrotation
								End Site
								{
									OFFSET 0.000000 0.000000 0.000000
								}
							}
						}
					}
				}
				JOINT RightShoulder
				{
					OFFSET -0.081759 0.118833 -0.038615
					CHANNELS 3 Zrotation Yrotation Xrotation
					JOINT RightArm
					{
						OFFSET -0.096012 0.032551 -0.009143
						CHANNELS 3 Zrotation Yrotation Xrotation
						JOINT RightForeArm
						{
							OFFSET -0.253742 -0.013329 -0.021401
							CHANNELS 3 Zrotation Yrotation Xrotation
							JOINT RightHand
							{
								OFFSET -0.255298 0.007772 -0.005559
								CHANNELS 3 Zrotation Yrotation Xrotation
								End Site
								{
									OFFSET 0.000000 0.000000 0.000000
								}
							}
						}
					}
				}
			}
		}
	}
}
MOTION
Frames: 13
Frame Time: 0.050000
0.000000 0.956139 0.000000 -2.011640 5.323706 0.984888 5.094438 -0.056893 1.977827 -4.005952 0.384417 -1.804797 0.734193 5.649084 9.665905 0.000000 0.000000 0.000000 -3.673465 0.270796 -3.147724 1.587441 -0.127347 2.731689 -13.161741 -28.526770 12.055391 0.000000 0.000000 0.000000 -0.261641 -0.355012 8.461173 5.729809 -0.606911 -25.226740 -1.542939 -1.977457 28.873448 -0.822751 2.329479 -27.839615 0.000000 0.000000 0.000000 -24.792021 -1.866757 -0.773964 -50.629257 -11.388741 -3.854158 -65.436705 -48.147683 36.327644 0.000000 0.000000 0.000000 14.227088 1.856466 0.591498 53.081911 -0.376190 -7.959453 58.409704 62.501099 42.582596 0.000000 0.000000 0.000000 
0.001201 0.955386 0.001280 -2.478006 3.416046 1.356690 4.668683 0.022360 2.863513 -2.879997 0.320015 -3.459651 1.690675 7.103228 9.748508 0.000000 0.000000 0.000000 -3.790584 0.289101 -3.179147 1.787023 -0.153652 2.267243 -11.334544 -25.636209 10.483933 0.000000 0.000000 0.000000 0.263300 -0.409892 8.802468 5.318264 -0.477409 -26.136358 -0.905800 -1.321654 29.510547 -1.203864 2.500091 -28.845332 0.000000 0.000000 0.000000 -23.954095 0.672739 -2.036336 -51.278246 -10.430181 -4.380826 -77.106875 -47.028827 43.415239 0.000000 0.000000 0.000000 12.782117 -0.124553 -0.423842 53.257131 -4.763835 -9.873489 79.674753 60.482213 57.467745 0.000000 0.000000 0.000000 
0.002187 0.954894 0.002324 -2.103334 4.007098 1.643772 3.664807 0.094488 3.432294 -1.835244 0.268055 -4.997494 1.354053 6.654055 9.944632 0.000000 0.000000 0.000000 -4.259000 0.309687 -3.630663 1.644516 -0.125149 2.848428 -11.514301 -25.933656 10.576406 0.000000 0.000000 0.000000 -0.300842 -0.348587 8.528860 6.579286 -0.883816 -24.347981 -2.542648 -1.460952 27.812253 -0.935798 2.247812 -25.271964 0.000000 0.000000 0.000000 -23.519847 2.231490 -3.080484 -50.930679 -8.118364 -5.112675 -81.717542 -48.218253 47.467335 0.000000 0.000000 0.000000 13.926585 -1.575193 -1.212926 52.339949 -9.834972 -11.566543 94.159575 59.046138 68.465290 0.000000 0.000000 0.000000 
0.002924 0.954631 0.003287 -2.208282 3.774245 1.754835 3.134992 0.131609 3.537337 -0.829025 0.217835 -5.232455 1.531687 6.906023 9.867016 0.000000 0.000000 0.000000 -4.485580 0.310764 -3.649557 2.093625 -0.183670 3.022242 -11.166636 -25.414875 9.911003 0.000000 0.000000 0.000000 -0.693211 -0.322638 8.740561 7.506174 -1.071757 -24.844199 -2.879508 -1.957579 28.096955 -0.497017 1.833774 -24.461137 0.000000 0.000000 0.000000 -23.933882 4.061153 -4.045879 -50.869623 -6.632994 -5.762852 -87.937328 -48.499890 52.780096 0.000000 0.000000 0.000000 12.614074 -3.036679 -1.949344 51.471700 -12.297421 -12.352721 110.493324 55.569811 80.447055 0.000000 0.000000 0.000000 
0.003418 0.954836 0.004076 -2.197066 4.828347 1.744926 2.937767 0.145480 3.773402 -0.336771 0.203773 -5.810203 0.993235 6.130811 9.935149 0.000000 0.000000 0.000000 -4.711911 0.292362 -3.575844 2.098554 -0.196955 2.702243 -11.679412 -26.070094 11.375273 0.000000 0.000000 0.000000 -0.582079 -0.379460 9.659348 7.754382 -1.091662 -25.149288 -3.530851 -3.152047 27.754408 -0.545180 1.720256 -23.557570 0.000000 0.000000 0.000000 -23.428202 4.346882 -4.001413 -51.404368 -4.785384 -6.557679 -93.767110 -50.784593 60.335149 0.000000 0.000000 0.000000 11.827892 -4.576171 -2.716040 51.873063 -15.622485 -13.714786 117.942776 51.336298 83.048397 0.000000 0.000000 0.000000 
0.003921 0.955349 0.004281 -2.127991 5.478736 1.420325 2.752210 0.179784 4.257676 -0.059171 0.198821 -6.169714 0.613549 5.617134 10.092491 0.000000 0.000000 0.000000 -4.995824 0.267324 -3.421497 2.213533 -0.215766 2.862045 -12.031962 -26.488502 12.372539 0.000000 0.000000 0.000000 -0.801931 -0.376654 9.979351 7.664822 -1.012219 -25.748312 -3.383776 -3.679010 28.614980 -0.184822 1.471661 -23.821725 0.000000 0.000000 0.000000 -22.931666 3.844437 -3.551725 -51.750896 -4.662670 -6.762778 -95.719003 -52.419707 64.117058 0.000000 0.000000 0.000000 10.879276 -4.371240 -2.519915 52.591939 -16.310604 -14.293830 123.674183 50.688323 89.344592 0.000000 0.000000 0.000000 
0.004152 0.955750 0.003786 -2.047937 5.766679 1.129457 2.882172 0.195872 4.733106 -0.409781 0.222564 -6.560453 0.377521 5.328467 10.306461 0.000000 0.000000 0.000000 -5.149545 0.245515 -3.205730 2.267922 -0.226779 2.796201 -12.298311 -26.814222 13.030895 0.000000 0.000000 0.000000 -0.664975 -0.411803 10.396053 7.674373 -1.035532 -25.469512 -3.694639 -3.579263 28.189912 -0.090116 1.488769 -24.275821 0.000000 0.000000 0.000000 -22.982624 2.975678 -3.142249 -51.022922 -6.956836 -5.676053 -92.813108 -55.148107 64.162961 0.000000 0.000000 0.000000 10.707120 -3.821110 -2.217973 51.669941 -14.421914 -13.212533 123.691679 51.732939 90.850329 0.000000 0.000000 0.000000 
0.003840 0.955797 0.002643 -2.007056 6.432365 0.732925 2.938442 0.199778 4.993983 -0.428093 0.220375 -6.549113 0.039340 4.816118 10.256934 0.000000 0.000000 0.000000 -5.168228 0.211651 -2.827459 2.240224 -0.232441 2.449949 -12.924141 -27.616384 14.200217 0.000000 0.000000 0.000000 -0.516444 -0.453928 10.821184 7.325501 -0.960670 -25.333994 -3.590786 -3.623638 27.956003 -0.297134 1.675252 -24.226832 0.000000 0.000000 0.000000 -23.256839 0.379117 -1.742387 -50.631863 -11.606994 -3.701039 -86.052907 -60.380432 63.343332 0.000000 0.000000 0.000000 10.946183 -0.981657 -0.851954 51.774954 -9.796298 -11.389354 118.675829 56.916359 91.708814 0.000000 0.000000 0.000000 
0.002655 0.956488 0.000492 -2.015014 6.756322 0.229397 3.287770 0.182300 5.191263 -0.848063 0.229602 -6.273004 -0.179983 4.534743 10.381682 0.000000 0.000000 0.000000 -5.139837 0.179465 -2.428959 2.423224 -0.261590 2.461920 -13.181879 -27.970079 14.524179 0.000000 0.000000 0.000000 -0.334855 -0.515976 11.581593 6.921375 -0.855491 -25.424374 -3.333195 -3.468149 27.705767 -0.759372 2.023486 -24.315669 0.000000 0.000000 0.000000 -23.033824 -2.573550 -0.082396 -51.260572 -18.893795 -0.580687 -70.403697 -65.378564 54.592060 0.000000 0.000000 0.000000 11.736046 2.347557 0.738422 51.663005 -3.927975 -9.032979 107.464818 62.903353 86.421567 0.000000 0.000000 0.000000 
0.000340 0.956713 -0.002588 -2.067335 7.155322 -0.167091 3.826588 0.141544 5.272703 -1.394879 0.247258 -6.150947 -0.423673 4.205247 10.465707 0.000000 0.000000 0.000000 -4.729171 0.156949 -2.079297 2.268812 -0.245041 2.246651 -13.624187 -28.622213 14.836258 0.000000 0.000000 0.000000 -0.224192 -0.572835 12.307563 7.079055 -0.890667 -25.388305 -3.237683 -3.253610 27.593780 -1.288502 2.428509 -24.499445 0.000000 0.000000 0.000000 -22.912384 -5.866366 1.720861 -52.072780 -26.606267 2.990297 -45.850498 -68.877328 37.681997 0.000000 0.000000 0.000000 12.605680 5.969464 2.533397 52.087363 2.861457 -6.334230 87.264901 69.395510 73.431080 0.000000 0.000000 0.000000 
-0.002773 0.957104 -0.006553 -2.076382 6.901940 -0.319471 4.098696 0.112774 4.950863 -1.598227 0.251478 -5.726209 -0.326888 4.399779 10.611249 0.000000 0.000000 0.000000 -4.706464 0.144490 -1.857473 2.393901 -0.265568 1.912321 -13.098684 -27.893723 14.242164 0.000000 0.000000 0.000000 -0.310853 -0.598262 12.992745 6.728517 -0.799943 -25.549901 -2.630495 -3.438903 27.515812 -1.822375 2.714544 -25.145988 0.000000 0.000000 0.000000 -21.881975 -9.309107 3.845955 -53.538429 -34.491300 7.062406 -17.050072 -66.892850 16.213914 0.000000 0.000000 0.000000 12.682736 9.379697 4.092545 52.431037 9.235426 -3.670824 61.622927 73.323997 53.880518 0.000000 0.000000 0.000000 
-0.006158 0.957154 -0.010625 -2.132762 6.648789 -0.555873 4.693709 0.065252 4.685617 -2.242457 0.277237 -5.257840 -0.229681 4.561166 10.677492 0.000000 0.000000 0.000000 -4.296227 0.161131 -2.031830 2.272479 -0.247362 1.897093 -13.285102 -28.179324 14.390663 0.000000 0.000000 0.000000 -0.573502 -0.586269 13.404910 7.015195 -0.877150 -25.537265 -2.162351 -3.482907 27.569631 -2.723177 3.237033 -25.832496 0.000000 0.000000 0.000000 -20.936539 -11.570537 5.165536 -54.444222 -41.572812 11.048485 -0.919849 -60.580183 4.784216 0.000000 0.000000 0.000000 12.798540 12.179357 5.373002 51.466586 15.265416 -1.067309 29.303201 74.147684 27.771217 0.000000 0.000000 0.000000 
-0.009233 0.957221 -0.014190 -2.112672 6.321514 -0.500579 4.729891 0.064544 4.596659 -2.094478 0.275324 -5.564002 -0.117120 4.816750 10.950166 0.000000 0.000000 0.000000 -4.169616 0.180296 -2.243015 2.318950 -0.256372 1.554645 -13.208608 -28.057487 14.398474 0.000000 0.000000 0.000000 -0.667764 -0.587341 13.734836 7.285948 -0.949535 -25.501982 -1.970433 -3.569939 27.191842 -3.029302 3.377076 -26.410782 0.000000 0.000000 0.000000 -20.100385 -13.764298 6.410490 -55.244939 -46.420961 14.140328 8.435709 -54.094095 -0.626394 0.000000 0.000000 0.000000 12.237091 14.122250 6.160824 51.744129 20.382937 1.248585 2.891545 71.323000 7.067773 0.000000 0.000000 0.000000 
